<?xml version="1.0" encoding="UTF-8" standalone="no"?>
<svg width="205px" height="326px" viewBox="0 0 205 326" version="1.1" xmlns="http://www.w3.org/2000/svg" xmlns:xlink="http://www.w3.org/1999/xlink" xmlns:sketch="http://www.bohemiancoding.com/sketch/ns">
    <!-- Generator: Sketch 3.4.3 (16044) - http://www.bohemiancoding.com/sketch -->
    <title>Group + Line + Group + Fill 13 + Fill 14 + Fill 15 + Rectangle 13</title>
    <desc>Created with Sketch.</desc>
    <defs></defs>
    <g id="Page-1" stroke="none" stroke-width="1" fill="none" fill-rule="evenodd" sketch:type="MSPage">
        <g id="Mobile-Portrait" sketch:type="MSArtboardGroup" transform="translate(-67.000000, -6.000000)">
            <g id="Group-+-Line-+-Group-+-Fill-13-+-Fill-14-+-Fill-15-+-Rectangle-13" sketch:type="MSLayerGroup" transform="translate(67.000000, 7.000000)">
                <g id="Group" transform="translate(0.000000, 204.000000)" fill="#FFFFFF" sketch:type="MSShapeGroup">
                    <path d="M106.258565,31.421036 C108.20313,37.3691177 112.721384,40.629124 119.412976,40.629124 C125.990182,40.629124 130.680016,37.3119246 132.624581,31.2494567 C133.368091,28.9045399 133.71125,25.4729543 133.71125,22.6704927 L133.71125,21.5838239 C133.71125,20.1539966 132.79616,19.2389071 131.366333,19.2389071 L122.329824,19.2389071 C120.78561,19.2389071 119.813328,20.2683828 119.813328,21.5838239 C119.813328,22.9564582 120.78561,23.9859339 122.329824,23.9859339 L128.277906,23.9859339 C128.506678,23.9859339 128.621064,24.10032 128.621064,24.3290924 C128.621064,26.2164645 128.449485,28.332609 127.877554,30.1055948 C126.676499,33.880339 123.645265,35.8820973 119.412976,35.8820973 C114.951915,35.8820973 112.378226,33.4799874 111.234364,29.8768225 C110.60524,27.9894504 110.319274,25.7017267 110.319274,20.5543483 C110.319274,15.4069699 110.60524,13.1192461 111.234364,11.231874 C112.378226,7.62870916 114.951915,5.22659924 119.412976,5.22659924 C123.016141,5.22659924 125.58983,6.54204039 127.305623,9.23011578 C127.934747,10.2595915 128.678257,10.6599431 129.593347,10.6599431 C130.908788,10.6599431 131.938264,9.74485362 131.938264,8.31502628 C131.938264,7.80028844 131.766684,7.22835751 131.537912,6.77081276 C129.593347,2.9960686 125.246672,0.479572493 119.412976,0.479572493 C112.721384,0.479572493 108.20313,3.73957881 106.258565,9.68766052 C105.343475,12.4901221 105.171896,15.0066182 105.171896,20.5543483 C105.171896,26.1020783 105.343475,28.6185744 106.258565,31.421036 L106.258565,31.421036 Z M154.815501,40.629124 C161.564286,40.629124 166.08254,37.3691177 168.027106,31.421036 C168.942195,28.6185744 169.113774,26.1020783 169.113774,20.5543483 C169.113774,15.0066182 168.942195,12.4901221 168.027106,9.68766052 C166.08254,3.73957881 161.564286,0.479572493 154.815501,0.479572493 C148.123909,0.479572493 143.605655,3.73957881 141.66109,9.68766052 C140.746,12.4901221 140.574421,15.0066182 140.574421,20.5543483 C140.574421,26.1020783 140.746,28.6185744 141.66109,31.421036 C143.605655,37.3691177 148.123909,40.629124 154.815501,40.629124 L154.815501,40.629124 Z M154.815501,35.8820973 C150.35444,35.8820973 147.780751,33.4799874 146.636889,29.8768225 C146.007765,27.9894504 145.721799,25.7017267 145.721799,20.5543483 C145.721799,15.4069699 146.007765,13.1192461 146.636889,11.231874 C147.780751,7.62870916 150.35444,5.22659924 154.815501,5.22659924 C159.333755,5.22659924 161.907445,7.62870916 163.051306,11.231874 C163.68043,13.1192461 163.966396,15.4069699 163.966396,20.5543483 C163.966396,25.7017267 163.68043,27.9894504 163.051306,29.8768225 C161.907445,33.4799874 159.333755,35.8820973 154.815501,35.8820973 L154.815501,35.8820973 Z M177.34958,37.7122763 C177.34958,39.0849105 178.207476,40 179.637304,40 L189.531709,40 C197.081197,40 201.713838,37.0259591 203.60121,31.1350705 C204.459106,28.6185744 204.745072,26.1592714 204.745072,20.5543483 C204.745072,14.9494251 204.459106,12.4901221 203.60121,9.97362599 C201.713838,4.08273737 197.081197,1.10869652 189.531709,1.10869652 L179.637304,1.10869652 C178.207476,1.10869652 177.34958,2.02378601 177.34958,3.39642025 L177.34958,37.7122763 Z M182.439765,34.9098147 L182.439765,6.19888183 C182.439765,5.97010945 182.554151,5.85572327 182.782924,5.85572327 L189.18855,5.85572327 C194.335929,5.85572327 197.309969,7.45712988 198.682604,11.6894188 C199.311728,13.6911771 199.597693,15.9217077 199.597693,20.5543483 C199.597693,25.1869888 199.311728,27.4175195 198.682604,29.4192777 C197.309969,33.6515666 194.335929,35.2529733 189.18855,35.2529733 L182.782924,35.2529733 C182.554151,35.2529733 182.439765,35.1385871 182.439765,34.9098147 L182.439765,34.9098147 Z" id="GOD"></path>
                    <path d="M7.1547941,38.7071654 C10.2240039,38.7071654 12.2788138,37.224581 13.1631624,34.5195148 C13.5793265,33.2450124 13.6573572,32.1005613 13.6573572,29.5775668 C13.6573572,27.0545723 13.5793265,25.9101212 13.1631624,24.6356188 C12.2788138,21.9305526 10.2240039,20.4479682 7.1547941,20.4479682 C4.11159456,20.4479682 2.05678462,21.9305526 1.17243604,24.6356188 C0.756271998,25.9101212 0.67824124,27.0545723 0.67824124,29.5775668 C0.67824124,32.1005613 0.756271998,33.2450124 1.17243604,34.5195148 C2.05678462,37.224581 4.11159456,38.7071654 7.1547941,38.7071654 L7.1547941,38.7071654 Z M7.1547941,36.5483145 C5.12599441,36.5483145 3.95553305,35.4558839 3.435328,33.8172379 C3.14921522,32.9588996 3.01916396,31.9184895 3.01916396,29.5775668 C3.01916396,27.2366441 3.14921522,26.196234 3.435328,25.3378956 C3.95553305,23.6992497 5.12599441,22.6068191 7.1547941,22.6068191 C9.20960405,22.6068191 10.3800654,23.6992497 10.9002705,25.3378956 C11.1863832,26.196234 11.3164345,27.2366441 11.3164345,29.5775668 C11.3164345,31.9184895 11.1863832,32.9588996 10.9002705,33.8172379 C10.3800654,35.4558839 9.20960405,36.5483145 7.1547941,36.5483145 L7.1547941,36.5483145 Z M9.7298091,18.3151275 C10.4580962,18.3151275 11.0303217,17.7429019 11.0303217,17.0406251 C11.0303217,16.312338 10.4580962,15.7141022 9.7298091,15.7141022 C9.02753228,15.7141022 8.42929647,16.312338 8.42929647,17.0406251 C8.42929647,17.7429019 9.02753228,18.3151275 9.7298091,18.3151275 L9.7298091,18.3151275 Z M4.55376886,18.3151275 C5.25604567,18.3151275 5.85428148,17.7429019 5.85428148,17.0406251 C5.85428148,16.312338 5.25604567,15.7141022 4.55376886,15.7141022 C3.82548179,15.7141022 3.25325623,16.312338 3.25325623,17.0406251 C3.25325623,17.7429019 3.82548179,18.3151275 4.55376886,18.3151275 L4.55376886,18.3151275 Z M17.4028336,37.3806425 C17.4028336,38.1089296 17.8450079,38.5511039 18.4952642,38.5511039 C19.1195102,38.5511039 19.5616845,38.1089296 19.5616845,37.3806425 L19.5616845,24.9477419 L19.6397153,24.9477419 L27.1826885,37.3546323 C27.6248628,38.1089296 28.0930473,38.5511039 28.7693139,38.5511039 C29.5756317,38.5511039 30.0438163,38.0048886 30.0438163,37.1465503 L30.0438163,21.7744911 C30.0438163,21.046204 29.601642,20.6040297 28.9513857,20.6040297 C28.3271396,20.6040297 27.8849653,21.046204 27.8849653,21.7744911 L27.8849653,34.2594122 L27.7809243,34.2594122 L20.2379511,21.8005013 C19.7957768,21.046204 19.3536025,20.6040297 18.6773359,20.6040297 C17.8710181,20.6040297 17.4028336,21.150245 17.4028336,22.0085833 L17.4028336,37.3806425 Z M39.7456404,38.7071654 C44.0373321,38.7071654 46.2221933,36.4702837 46.2221933,33.4010739 C46.2221933,30.5659564 44.5315269,28.979331 40.9681223,28.4331157 L40.109784,28.3030644 C37.3526972,27.8869004 36.4423384,26.9505313 36.4423384,25.4679469 C36.4423384,23.829301 37.5607792,22.6068191 39.7976609,22.6068191 C41.0981736,22.6068191 42.2686349,22.9969729 43.3870758,23.4911677 C43.621168,23.5952087 43.9072808,23.6992497 44.1413731,23.6992497 C44.7396089,23.6992497 45.1817832,23.2310652 45.1817832,22.6588396 C45.1817832,22.2686859 44.9997114,21.9305526 44.5575371,21.6444398 C43.4911168,20.9941835 41.7744401,20.4479682 39.8756917,20.4479682 C36.3382974,20.4479682 34.1014156,22.4507576 34.1014156,25.5979982 C34.1014156,28.3810952 35.7660718,29.9677206 39.3294764,30.5139359 L40.1878147,30.6439871 C43.0489425,31.0861614 43.8812706,32.0225305 43.8812706,33.5311252 C43.8812706,35.3518428 42.4246964,36.5483145 39.9277122,36.5483145 C38.2370458,36.5483145 36.8064819,35.9760889 35.5319795,35.1697711 C35.3238975,35.0397198 35.063795,34.9356788 34.8036925,34.9356788 C34.1274259,34.9356788 33.6852516,35.4558839 33.6852516,36.0281094 C33.6852516,36.4442734 33.8933336,36.7824067 34.2574772,37.0425093 C35.5059693,37.9008476 37.4567382,38.7071654 39.7456404,38.7071654 L39.7456404,38.7071654 Z M49.7855979,37.3026118 C49.7855979,38.0829193 50.2537824,38.5511039 50.9560592,38.5511039 C51.6323258,38.5511039 52.1005103,38.0829193 52.1005103,37.3026118 L52.1005103,33.3750637 L55.2737611,29.5255463 L60.0336373,37.8748373 C60.2937399,38.3170116 60.6578834,38.5511039 61.126068,38.5511039 C61.7763243,38.5511039 62.2184986,38.0569091 62.2184986,37.4586733 C62.2184986,37.224581 62.1404678,36.9904887 61.9844063,36.7303862 L56.808366,27.7308389 L61.33415,22.3727269 C61.5162217,22.1646448 61.646273,21.9045423 61.646273,21.6184295 C61.646273,21.0201937 61.1520782,20.6040297 60.6058629,20.6040297 C60.2157091,20.6040297 59.8775758,20.8121117 59.6434836,21.0982245 L52.1005103,30.2798436 L52.1005103,21.8525218 C52.1005103,21.0722142 51.6323258,20.6040297 50.9560592,20.6040297 C50.2537824,20.6040297 49.7855979,21.0722142 49.7855979,21.8525218 L49.7855979,37.3026118 Z M63.9871957,37.4846835 C63.9871957,38.1349399 64.4813905,38.5511039 65.0796263,38.5511039 C65.5998314,38.5511039 66.0159954,38.2649911 66.1980672,37.7187758 L67.3945388,34.3114327 L74.6513992,34.3114327 L75.8478708,37.7187758 C76.0299426,38.2649911 76.4461066,38.5511039 76.9663117,38.5511039 C77.5645475,38.5511039 78.0587423,38.1349399 78.0587423,37.4846835 C78.0587423,37.3026118 78.0067218,37.12054 77.9547013,36.9644785 L72.5965893,21.9045423 C72.3104765,21.0722142 71.8162817,20.6040297 71.0359741,20.6040297 C70.2556666,20.6040297 69.8134923,21.0722142 69.5273795,21.9045423 L64.0912367,36.9644785 C64.0392162,37.12054 63.9871957,37.3026118 63.9871957,37.4846835 L63.9871957,37.4846835 Z M68.1488361,32.178592 L71.0099639,24.141424 L71.0879946,24.141424 L73.8971019,32.178592 L68.1488361,32.178592 Z M82.2724032,38.5511039 C82.9486698,38.5511039 83.4168543,38.0829193 83.4168543,37.3026118 L83.4168543,31.0861614 C83.4168543,30.9821204 83.4688748,30.9300999 83.5729158,30.9300999 L87.5264742,30.9300999 L91.011848,37.8228168 C91.2979608,38.3170116 91.6621043,38.5511039 92.1302889,38.5511039 C92.8325657,38.5511039 93.2487297,38.0308988 93.2487297,37.4586733 C93.2487297,37.224581 93.1967092,37.0425093 93.0926682,36.8344272 L89.9194174,30.5919666 C92.0262479,29.9157001 93.27474,28.1990234 93.27474,25.8320904 C93.27474,22.7368704 91.115889,20.734081 87.6825357,20.734081 L82.1423519,20.734081 C81.4920956,20.734081 81.1019418,21.150245 81.1019418,21.7744911 L81.1019418,37.3026118 C81.1019418,38.0829193 81.5701264,38.5511039 82.2724032,38.5511039 L82.2724032,38.5511039 Z M87.708546,28.771249 L83.5729158,28.771249 C83.4688748,28.771249 83.4168543,28.7192285 83.4168543,28.6151875 L83.4168543,23.0489934 C83.4168543,22.9449524 83.4688748,22.8929319 83.5729158,22.8929319 L87.708546,22.8929319 C89.7633559,22.8929319 90.9858378,23.9853625 90.9858378,25.8320904 C90.9858378,27.6788184 89.7633559,28.771249 87.708546,28.771249 L87.708546,28.771249 Z" id="ÖNSKAR"></path>
                    <path d="M81.1891065,53.2934554 L81.1891065,57.3506091 L73.7585891,57.9432271 L73.7585891,100.83965 C73.7585891,106.887422 71.9579602,111.696697 68.3566485,115.267618 C64.7553367,118.838539 60.098014,120.623973 54.3845405,120.623973 C48.1544231,120.623973 43.2311847,119.013283 39.6146775,115.791857 C35.9981704,112.57043 34.2659198,107.859925 34.4178739,101.660198 L34.5090459,101.386682 L39.6146775,101.386682 C39.6146775,106.188431 40.8910727,109.827677 43.4439013,112.304528 C45.9967298,114.78138 49.6435731,116.019787 54.3845405,116.019787 C58.4265191,116.019787 61.7542635,114.644623 64.3678738,111.894254 C66.981484,109.143885 68.2882695,105.459054 68.2882695,100.83965 L68.2882695,57.9432271 L60.857752,57.3506091 L60.857752,53.2934554 L73.7585891,53.2934554 L81.1891065,53.2934554 Z M107.765743,53.2934554 L107.765743,57.3506091 L100.335225,57.9432271 L100.335225,98.2868342 C100.335225,103.939526 102.006695,108.30814 105.349685,111.392808 C108.692675,114.477476 113.053691,116.019787 118.432866,116.019787 C123.903213,116.019787 128.355401,114.485074 131.789563,111.415601 C135.223725,108.346129 136.940781,103.969917 136.940781,98.2868342 L136.940781,57.9432271 L129.510263,57.3506091 L129.510263,53.2934554 L149.796032,53.2934554 L149.796032,57.3506091 L142.365514,57.9432271 L142.365514,98.2868342 C142.365514,105.519849 140.154615,111.050894 135.732752,114.880137 C131.310888,118.70938 125.544317,120.623973 118.432866,120.623973 C111.442978,120.623973 105.775176,118.701782 101.429289,114.857344 C97.0834023,111.012906 94.9104916,105.489458 94.9104916,98.2868342 L94.9104916,57.9432271 L87.4799741,57.3506091 L87.4799741,53.2934554 L94.9104916,53.2934554 L100.335225,53.2934554 L107.765743,53.2934554 Z M155.767797,119.666667 L155.767797,115.655099 L163.198315,115.062481 L163.198315,57.9432271 L155.767797,57.3506091 L155.767797,53.2934554 L163.198315,53.2934554 L168.668634,53.2934554 L176.099152,53.2934554 L176.099152,57.3506091 L168.668634,57.9432271 L168.668634,115.062481 L196.248162,115.062481 L196.658436,105.717352 L201.490552,105.717352 L201.490552,119.666667 L155.767797,119.666667 Z" id="JUL"></path>
                </g>
                <g id="Line-+-Group-+-Fill-13-+-Fill-14-+-Fill-15-+-Rectangle-13" transform="translate(68.500000, 107.500000) rotate(-1.000000) translate(-68.500000, -107.500000) translate(39.000000, 1.000000)" sketch:type="MSShapeGroup">
                    <path d="M28.2032967,0.3330163 L28.2032967,155.518612" id="Line" stroke="#FFFFFF" stroke-width="3" stroke-linecap="square"></path>
                    <g id="Group-+-Fill-13-+-Fill-14-+-Fill-15" transform="translate(0.000000, 153.576422)" fill="#FFFFFF">
                        <g id="Fill-13-+-Fill-14-+-Fill-15-Copy" transform="translate(0.000000, 0.000000)">
                            <path d="M58.7654012,29.4649921 C58.7654012,45.6137115 45.6535891,58.7051155 29.4786829,58.7051155 C13.3037766,58.7051155 0.191964511,45.6137115 0.191964511,29.4649921 C0.191964511,13.3162728 13.3037766,0.225046137 29.4786829,0.225046137 C45.6535891,0.225046137 58.7654012,13.3162728 58.7654012,29.4649921 Z M22.232457,45.1288119 L22.3710184,45.1247326 C18.8259795,44.9700755 15.9613123,40.2085169 13.2927628,30.5816448 C11.3859454,23.701887 10.4518998,16.731144 10.4417741,16.6616193 C10.360769,16.0981495 10.7920856,15.5760045 11.3562791,15.4951288 C11.9202948,15.4135436 12.4633487,15.8051524 12.5445315,16.3684447 C12.5543018,16.4369053 13.5617139,23.2939612 15.4354898,30.0483261 C17.6990138,38.2073747 20.3661422,42.9350577 22.7612995,43.0650619 C24.0072859,42.9785107 26.2097008,40.8312246 28.4419597,34.9994815 C28.5696849,34.6655144 28.6956336,34.3272907 28.8174965,33.985165 C27.6860898,29.9594692 27.0378713,25.6349233 27.0378713,22.4883963 C27.0378713,20.5292882 27.2664976,18.9580643 27.716822,17.8174682 C28.5185238,15.7877712 29.9028938,15.4965476 30.656632,15.4846646 C31.3325627,15.474023 32.3824314,15.6089933 33.034558,17.3556253 C33.3557361,18.2161714 33.5523866,19.3463033 33.5523866,20.8190929 C33.5523866,23.9929332 32.5993332,29.236731 30.9891793,34.0426294 C32.4973663,39.050185 34.634764,43.0506958 36.3474178,43.0506958 C37.3862727,43.0506958 38.6635241,41.7187293 39.7261831,39.8857235 C38.7171723,37.5745576 38.1288194,34.9618814 38.1288194,33.116283 C38.1288194,32.0159474 38.3126797,31.1183333 38.6759591,30.4486255 C39.1625227,29.5506566 39.9741724,29.0560022 40.9606227,29.0560022 C41.9655478,29.0560022 42.7397149,29.5761963 43.3072835,30.3939989 C43.7437518,31.0229141 43.9176641,31.8768979 43.9176641,32.9504523 C43.9176641,34.8341828 43.1976779,37.5465349 42.0184853,39.9316595 C42.9351219,41.7135859 44.0437904,42.9962466 44.9654011,42.9962466 C45.3411155,42.9962466 45.7717215,42.7983139 46.650165,41.8318844 C47.0335181,41.4104793 47.6867105,41.378732 48.1079015,41.7609408 C48.5299807,42.1433269 48.5617787,42.7951214 48.1787809,43.2165265 C47.1745664,44.3212961 46.2437184,45.0571588 44.9654011,45.0571588 C43.3714126,45.0571588 41.9506258,43.7784 40.8227719,41.9840585 C39.5645282,43.8089058 38.0135293,45.1114307 36.3474178,45.1114307 C33.7410433,45.1114307 31.1566964,41.6162158 29.5129679,37.1329336 C27.6667267,41.5296646 24.7194557,44.9773472 22.232457,45.1238458 L22.232457,45.1288119 Z M40.9615109,20.0514829 C39.3522451,20.0514829 38.0391098,21.5035215 38.0352017,23.2930744 C38.0343135,24.1030732 38.300067,24.9552834 38.7644252,25.6409535 C39.3280857,26.4731222 40.1271228,26.9401086 40.9547605,26.9401086 L40.9599121,26.9401086 C42.6802046,26.9401086 43.8823131,25.0240987 43.8851554,23.2952027 C43.8876424,21.5042309 42.5777047,20.054498 40.9615109,20.0514829 Z M29.6373179,18.5733725 C29.2873616,19.4594584 29.1024355,20.8134174 29.1024355,22.4883963 C29.1024355,24.8820341 29.4442202,27.567605 30.0020184,30.1889718 C30.9284254,26.7643458 31.4114361,23.338833 31.4883554,20.8190929 C31.6107513,16.8098914 30.0434092,17.5453994 29.6373179,18.5733725 Z M40.192673,33.0857773 C40.2699476,34.4989742 40.4820531,35.9027711 40.9393055,37.3168549 C41.4967485,35.8373257 41.7880826,34.2850792 41.8536328,32.9504523 C41.9717653,30.5426258 40.0569539,30.6011543 40.192673,33.0857773 Z M41.0361208,24.8793738 L41.0343444,24.8793738 C40.760064,24.8793738 40.4951986,24.6183012 40.3083185,24.3425079 C40.1544798,24.1153109 40.066369,23.7797476 40.0665467,23.511226 C40.0679678,22.9181373 40.4019362,22.4103583 41.0366538,22.4103583 C41.6587587,22.4103583 42.0064056,22.984647 42.005695,23.5782677 C42.0046292,24.1513148 41.6061765,24.8793738 41.0361208,24.8793738 Z" id="Fill-13"></path>
                        </g>
                    </g>
                    <path d="M21.316129,151.225376 C21.316129,151.225376 25.4457384,150.163613 28.3580645,150.163613 C30.140362,150.163613 35.4,151.225376 35.4,151.225376 L35.4,158.126835 L21.316129,158.126835 L21.316129,151.225376 Z" id="Rectangle-13" fill="#FFFFFF"></path>
                </g>
            </g>
        </g>
    </g>
</svg>